**ABCDEFGHIJKLMNOPQRSTUVWXYZabcdefghijklmnopqrstuvwxyz**************************
**PARASOLID !"#$%&'()*+,-./:;<=>?@[\]^_`{|}~0123456789**************************
**PART1;
MC=AMD64;
MC_MODEL=Intel64 Family 6 Model 94 Stepping 3, GenuineIntel;
MC_ID=unknown;
OS=Windows_NT;
OS_RELEASE=unknown;
FRU=Parasolid Version 30.0, build 298, 12-15-2017;
APPL=SOLIDWORKS 2018-2018134;
SITE=;
USER=unknown;
FORMAT=text;
GUISE=transmit;
KEY=Propeller washer;
FILE=Propeller washer.x_t;
DATE=Sun Sep  9 10:49:22 2018;
**PART2;
SCH=SCH_3000298_30000;
USFLD_SIZE=0;
**PART3;
**END_OF_HEADER*****************************************************************
T51 : TRANSMIT FILE created by modeller version 300029823 SCH_3000298_30000_1300
6205 0 12 33 CCCCCCI4 mesh1006 0 I8 polyline1008 0 CCCCCCCDI5 owner1040 0 CCCCCC
I13 boundary_mesh1006 0 I17 boundary_polyline1008 0 CCCA16 index_map_offset0 0 1
 dA9 index_map82 0 A17 node_id_index_map82 0 A20 schema_embedding_map82 0 A5 chi
ld12 0 A14 lowest_node_id0 0 1 dZ1 318 0 2 0 0 0 0 0 0 1e3 1e-8 0 3 0 1 0 1 1 4
 5 6 0 0 0 7 8 0 0 0 0 0 0 0 70 11 CI9 list_type0 0 1 uI10 notransmit0 0 1 lCCCD
CCDI12 finger_index0 0 1 dI12 finger_block1012 0 CZ2 0 4 T1 0 0 2 20 1 9 9 13 25
5 4 35 0 1 0 10 0 0 11 0 52 255 5 225 0 12 13 0 0 -.004 0 0 1 0 0 .00625 .707106
781186553 .707106781186543 0 0 -1 31 255 6 167 0 8 14 0 0 +.004 0 0 -1 0 0 0 0 1
 .00625 19 8 CCCCCCCA5 owner12 0 Z7 39 0 1 11 0 15 V0 16 255 8 164 0 ?16 0 17 6
 0 0 1 17 255 16 0 18 16 16 0 19 8 0 0 +16 17 158 0 ?20 8 21 14 0 0 1 17 20 0 22
 20 20 0 23 17 0 0 +16 21 152 0 ?24 17 25 26 0 0 1 31 14 161 0 17 26 6 0 -25e-5
 0 0 1 0 0 0 0 -1 .006 31 26 155 0 21 27 14 0 -.00375 0 0 -1 0 0 0 0 1 .006 31 2
7 149 0 25 28 26 0 -0 0 0 1 0 0 0 0 -1 .01475 16 25 146 0 ?29 21 30 27 0 0 1 31
 28 143 0 30 31 27 0 +0 0 0 1 0 0 0 0 -1 .00625 16 30 140 0 ?32 25 33 28 0 0 1 3
1 31 137 0 33 34 28 0 +.002757506363482245 0 0 1 0 0 0 0 -1 .0147567038468059 16
 33 134 0 ?35 30 36 31 0 0 1 31 34 131 0 36 37 31 0 +.002363598305929885 0 0 -1
 0 0 0 0 1 .015 16 36 128 0 ?38 33 39 34 0 0 1 31 37 125 0 39 40 34 0 +.00024999
9999999997 0 0 1 0 0 0 0 -1 .015 16 39 122 0 ?41 36 42 37 0 0 1 31 40 73 0 42 0
 37 0 +.004 0 0 -1 0 0 0 0 1 .0095 16 42 48 0 ?43 39 0 40 0 0 1 17 43 0 44 43 43
 0 45 42 0 0 +15 255 44 55 0 43 46 0 17 45 0 47 45 45 0 43 42 0 0 -15 47 98 0 45
 48 0 14 255 48 51 49 ?50 46 18 4 51 -0 0 50 46 15 81 255 1 49 310 52 48 53 0 0
 54 55 14 50 46 54 ?56 48 22 4 57 -0 0 56 48 15 14 46 56 58 ?48 59 60 4 61 -0 0
 48 59 15 15 18 165 0 16 48 47 50 255 51 67 0 48 57 61 0 +.004 0 -.006 -1 0 0 0
 0 1 13 15 38 0 0 0 0 0 0 7 10 14 10 64 62 ?59 0 63 4 64 -0 0 59 0 15 81 1 62 31
3 52 10 65 0 58 66 67 14 59 61 66 ?46 10 68 4 69 -0 0 46 10 15 15 63 147 0 29 10
 70 50 64 70 0 10 69 71 0 +0 0 -.006 1 0 0 0 0 -1 51 255 69 69 0 59 61 64 0 -0 0
 0 -1 0 0 .015 0 0 1 52 71 186 0 56 64 72 0 +.002363598305929885 0 0 -1 0 0 .015
 .525492880721921 .850797997359289 0 0 1 14 56 179 73 ?74 50 75 4 71 +0 0 74 50
 15 52 72 199 0 74 71 13 0 +0 0 0 1 0 0 .01475 .707106781186548 .707106781186548
 0 0 -1 14 74 192 76 ?77 56 78 4 72 +0 0 77 56 15 52 13 212 0 77 72 5 0 -25e-5 0
 0 -1 0 0 .006 .707106781186549 .707106781186546 0 0 1 14 77 205 79 ?12 74 80 4
 13 +0 0 12 74 15 81 1 79 317 52 77 81 0 76 82 83 14 12 218 82 ?0 77 84 4 5 +0 0
 0 77 15 15 80 206 0 85 77 86 17 85 0 80 85 85 0 32 30 0 0 -15 86 207 0 23 77 0
 17 23 0 86 23 23 0 20 17 0 0 -17 32 0 70 32 32 0 85 30 0 0 +15 70 141 0 32 10 0
 81 1 82 318 52 12 87 0 79 0 88 15 84 219 0 89 12 90 17 89 0 84 89 89 0 24 21 0
 0 -15 90 220 0 19 12 0 17 19 0 90 19 19 0 16 8 0 0 -17 24 0 91 24 24 0 89 21 0
 0 +15 91 153 0 24 50 0 80 255 1 52 92 93 9000 1 1 1 1 1 1 1 1 0 FFFFTFTFFFFFFF1
 81 1 87 289 94 12 0 82 81 0 95 82 255 1 88 -1063583638 80 1 94 0 96 8001 0 0 0
 0 3 5 0 0 0 FFFFTFTFFFFFFF2 81 1 81 288 94 77 0 79 97 87 98 83 255 3 95 .898039
215686275 .917647058823529 .929411764705882 81 1 97 287 94 74 0 76 99 81 100 83
 3 98 .898039215686275 .917647058823529 .929411764705882 81 1 76 316 52 74 97 0
 73 79 101 81 1 99 286 94 56 0 73 102 97 103 83 3 100 .898039215686275 .91764705
8823529 .929411764705882 81 1 73 315 52 56 99 0 66 76 104 81 1 102 285 94 50 0 5
4 53 99 105 83 3 103 .898039215686275 .917647058823529 .929411764705882 81 1 54
 311 52 50 102 0 49 58 106 81 1 53 284 94 48 0 49 107 102 108 83 3 105 .89803921
5686275 .917647058823529 .929411764705882 81 1 107 283 94 46 0 58 109 53 110 83
 3 108 .898039215686275 .917647058823529 .929411764705882 81 1 58 312 52 46 107
 0 54 62 111 81 1 109 282 94 59 0 66 65 107 112 83 3 110 .898039215686275 .91764
7058823529 .929411764705882 81 1 66 314 52 59 109 0 62 73 113 81 1 65 281 94 10
 0 62 0 109 114 83 3 112 .898039215686275 .917647058823529 .929411764705882 83 3
 114 .898039215686275 .917647058823529 .929411764705882 82 1 113 -1856503702 82
 1 111 -1857093526 82 1 106 -1858273174 82 1 104 -1067319190 82 1 101 -106607400
6 79 255 15 96 SDL/TYSA_COLOUR79 14 93 SWEntUnchanged82 1 83 -1064828822 15 78 1
93 0 115 74 116 17 115 0 78 115 115 0 41 39 0 0 -15 116 194 0 117 74 0 17 117 0
 116 117 117 0 29 25 0 0 -17 29 0 63 29 29 0 117 25 0 0 +17 41 0 118 41 41 0 115
 39 0 0 +15 118 123 0 41 59 0 15 75 180 0 119 56 120 17 119 0 75 119 119 0 35 33
 0 0 -15 120 181 0 121 56 0 17 121 0 120 121 121 0 38 36 0 0 -17 38 0 68 38 38 0
 121 36 0 0 +15 68 129 0 38 59 118 17 35 0 60 35 35 0 119 33 0 0 +15 60 135 0 35
 46 44 52 61 68 0 46 51 69 0 -.004 0 0 -1 0 0 .0095 .97318461277641 .23002545392
897 0 0 1 82 1 67 -1856176022 51 57 66 0 50 0 51 0 +0 0 0 -1 0 0 .006 0 0 1 15 2
2 159 0 20 50 91 82 1 55 -1857683350 19 11 34 0 1 0 7 4 S0 74 4 CI16 index_map_o
ffset0 0 1 dCCZ20 9 2 0 0 82 87 0 0 0 0 0 0 0 0 0 0 0 0 0 0 0 0 0 0 1 0 
